<svg width="16" height="16" viewBox="0 0 16 16" fill="none" xmlns="http://www.w3.org/2000/svg">
<g clip-path="url(#clip0_1_12)">
<path fill-rule="evenodd" clip-rule="evenodd" d="M11.2803 2.70495C10.8217 3.5637 10.5 4.75425 10.5 6C10.5 7.24575 10.8217 8.4363 11.2803 9.29505C11.5097 9.72461 11.7589 10.0442 11.9927 10.2473C12.2292 10.4528 12.4019 10.5 12.5 10.5C12.5981 10.5 12.7708 10.4528 13.0073 10.2473C13.2411 10.0442 13.4903 9.72461 13.7197 9.29505C14.1783 8.4363 14.5 7.24575 14.5 6C14.5 4.75425 14.1783 3.5637 13.7197 2.70495C13.4903 2.27539 13.2411 1.95579 13.0073 1.75271C12.7708 1.54717 12.5981 1.5 12.5 1.5C12.4019 1.5 12.2292 1.54717 11.9927 1.75271C11.7589 1.95579 11.5097 2.27539 11.2803 2.70495ZM11.0089 0.620406C11.4145 0.267966 11.9231 0 12.5 0C13.0769 0 13.5855 0.267966 13.9911 0.620406C14.3996 0.9753 14.7535 1.45652 15.0428 1.99835C15.6217 3.08237 16 4.51681 16 6C16 7.48319 15.6217 8.91763 15.0428 10.0017C14.7535 10.5435 14.3996 11.0247 13.9911 11.3796C13.5855 11.732 13.0769 12 12.5 12C11.9231 12 11.4145 11.732 11.0089 11.3796C10.6004 11.0247 10.2465 10.5435 9.95717 10.0017C9.37827 8.91763 9 7.48319 9 6C9 4.51681 9.37827 3.08237 9.95717 1.99835C10.2465 1.45652 10.6004 0.9753 11.0089 0.620406Z" fill="#1F2933"/>
<path fill-rule="evenodd" clip-rule="evenodd" d="M8.27797 2.39048C6.01601 2.86173 3.66309 3.35731 3.1819 3.47761C2.8853 3.55176 2.45686 3.82031 2.09498 4.29186C1.74322 4.75022 1.5 5.34319 1.5 6C1.5 6.6568 1.74322 7.24978 2.09498 7.70814C2.45686 8.17968 2.8853 8.44824 3.1819 8.52239C3.66309 8.64269 6.01601 9.13827 8.27797 9.60951C9.40247 9.84378 10.4958 10.0703 11.3081 10.2382L12.6509 10.5153L12.5 11.25C12.3488 11.9846 12.3487 11.9846 12.3487 11.9846L11.0044 11.7071C10.1917 11.5391 9.09753 11.3125 7.97203 11.078C5.73399 10.6117 3.33691 10.1073 2.8181 9.97761C2.1147 9.80176 1.41814 9.28998 0.905015 8.62136C0.381778 7.93956 0 7.03254 0 6C0 4.96746 0.381778 4.06044 0.905015 3.37864C1.41814 2.71001 2.1147 2.19824 2.8181 2.02239C3.33691 1.89269 5.73399 1.38827 7.97203 0.922014C9.09753 0.687535 10.1917 0.460889 11.0044 0.292873L12.3484 0.0154878C12.3484 0.0154878 12.3488 0.0154064 12.5 0.749999C12.6512 1.48459 12.6511 1.48461 12.6511 1.48461L11.3081 1.76181C10.4958 1.92973 9.40247 2.15621 8.27797 2.39048Z" fill="#1F2933"/>
<path fill-rule="evenodd" clip-rule="evenodd" d="M2 13.25V9.5H3.5V13.25C3.5 13.9404 4.05964 14.5 4.75 14.5H5.25C5.94036 14.5 6.5 13.9404 6.5 13.25V10.5H8V13.25C8 14.7688 6.76878 16 5.25 16H4.75C3.23122 16 2 14.7688 2 13.25Z" fill="#1F2933"/>
</g>
<defs>
<clipPath id="clip0_1_12">
<rect width="16" height="16" fill="white"/>
</clipPath>
</defs>
</svg>
