<svg width="16" height="16" viewBox="0 0 16 16" fill="none" xmlns="http://www.w3.org/2000/svg">
<g clip-path="url(#clip0_1407_101)">
<path fill-rule="evenodd" clip-rule="evenodd" d="M1 2.75C1 1.7835 1.7835 1 2.75 1H6C6.25077 1 6.48494 1.12533 6.62404 1.33397L8.32717 3.88867C8.37354 3.95822 8.4516 4 8.53519 4H14.25C15.2165 4 16 4.7835 16 5.75V14.25C16 14.6642 15.6642 15 15.25 15H5.02967C3.95703 15 2.98228 14.3763 2.53278 13.4024L0.0690322 8.06429C-0.0381498 7.83207 -0.0195973 7.56123 0.11825 7.34578C0.256097 7.13034 0.494233 7 0.750002 7H12.25C12.5425 7 12.8084 7.17009 12.931 7.43571L14.5 10.8353V5.75C14.5 5.61193 14.3881 5.5 14.25 5.5H8.53519C7.95007 5.5 7.40366 5.20757 7.0791 4.72073L5.59861 2.5H2.75C2.61193 2.5 2.5 2.61193 2.5 2.75V5.25C2.5 5.66421 2.16422 6 1.75 6C1.33579 6 1 5.66421 1 5.25V2.75ZM14.0778 13.5L11.7701 8.5H1.92218L3.89472 12.7738C4.09903 13.2165 4.5421 13.5 5.02967 13.5H14.0778Z" fill="#1F2933"/>
</g>
<defs>
<clipPath id="clip0_1407_101">
<rect width="16" height="16" fill="white"/>
</clipPath>
</defs>
</svg>
