<svg width="16" height="16" viewBox="0 0 16 16" fill="none" xmlns="http://www.w3.org/2000/svg">
<path fill-rule="evenodd" clip-rule="evenodd" d="M3.50363 3.79405C2.32227 4.65322 1.5 5.99047 1.5 8C1.5 8.93255 1.67734 9.71055 1.97324 10.3573C2.2263 10.9105 2.40222 11.5912 2.26869 12.3034L2.0065 13.7017C1.9741 13.8745 2.12548 14.0259 2.29829 13.9935L5.50567 13.3921C5.85667 13.3263 6.20303 13.3345 6.52528 13.3856C7.01186 13.4627 7.50786 13.5 8 13.5C9.64022 13.5 11.284 13.0876 12.4964 12.2059C13.6777 11.3468 14.5 10.0095 14.5 8C14.5 5.99047 13.6777 4.65322 12.4964 3.79405C11.284 2.91235 9.64022 2.5 8 2.5C6.35978 2.5 4.71597 2.91235 3.50363 3.79405ZM2.62137 2.58095C4.15903 1.46265 6.14022 1 8 1C9.85978 1 11.841 1.46265 13.3786 2.58095C14.9473 3.72178 16 5.50953 16 8C16 10.4905 14.9473 12.2782 13.3786 13.4191C11.841 14.5374 9.85978 15 8 15C7.43288 15 6.85819 14.9571 6.29033 14.8671C6.1059 14.8378 5.93533 14.8377 5.7821 14.8664L2.57472 15.4678C1.36506 15.6946 0.30538 14.6349 0.532191 13.4253L0.794383 12.0269C0.851289 11.7234 0.786058 11.3679 0.609212 10.9814C0.215433 10.1206 0 9.12706 0 8C0 5.50953 1.05273 3.72178 2.62137 2.58095Z" fill="#1F2933"/>
<path fill-rule="evenodd" clip-rule="evenodd" d="M4 8C4 7.44772 4.44772 7 5 7C5.55228 7 6 7.44772 6 8C6 8.55228 5.55228 9 5 9C4.44772 9 4 8.55228 4 8Z" fill="#1F2933"/>
<path fill-rule="evenodd" clip-rule="evenodd" d="M7 8C7 7.44772 7.44772 7 8 7C8.55229 7 9 7.44772 9 8C9 8.55228 8.55229 9 8 9C7.44772 9 7 8.55228 7 8Z" fill="#1F2933"/>
<path fill-rule="evenodd" clip-rule="evenodd" d="M10 8C10 7.44772 10.4477 7 11 7C11.5523 7 12 7.44772 12 8C12 8.55228 11.5523 9 11 9C10.4477 9 10 8.55228 10 8Z" fill="#1F2933"/>
</svg>
