<svg width="16" height="16" viewBox="0 0 16 16" fill="none" xmlns="http://www.w3.org/2000/svg">
<g clip-path="url(#clip0_301_4587)">
<path fill-rule="evenodd" clip-rule="evenodd" d="M8.00001 0C8.22259 0 8.43368 0.0988672 8.57617 0.269862L9.82617 1.76986C10.0125 1.99342 10.0526 2.30458 9.9292 2.56812C9.80577 2.83166 9.54102 3 9.25001 3H6.75001C6.459 3 6.19425 2.83166 6.07082 2.56812C5.94738 2.30458 5.98754 1.99342 6.17384 1.76986L7.42384 0.269862C7.56634 0.0988672 7.77742 0 8.00001 0Z" fill="#1F2933"/>
<path fill-rule="evenodd" clip-rule="evenodd" d="M6.07082 13.4319C6.19425 13.1683 6.459 13 6.75001 13H9.25001C9.54102 13 9.80577 13.1683 9.9292 13.4319C10.0526 13.6954 10.0125 14.0066 9.82617 14.2301L8.57617 15.7301C8.43368 15.9011 8.22259 16 8.00001 16C7.77742 16 7.56634 15.9011 7.42384 15.7301L6.17384 14.2301C5.98754 14.0066 5.94738 13.6954 6.07082 13.4319Z" fill="#1F2933"/>
<path fill-rule="evenodd" clip-rule="evenodd" d="M13.4319 6.07082C13.6954 5.94738 14.0066 5.98754 14.2301 6.17384L15.7301 7.42384C15.9011 7.56634 16 7.77742 16 8.00001C16 8.22259 15.9011 8.43368 15.7301 8.57618L14.2301 9.82617C14.0066 10.0125 13.6954 10.0526 13.4319 9.9292C13.1683 9.80577 13 9.54102 13 9.25001V6.75001C13 6.459 13.1683 6.19425 13.4319 6.07082Z" fill="#1F2933"/>
<path fill-rule="evenodd" clip-rule="evenodd" d="M2.56812 6.07082C2.83166 6.19425 3 6.459 3 6.75001V9.25001C3 9.54102 2.83166 9.80577 2.56812 9.9292C2.30458 10.0526 1.99342 10.0125 1.76986 9.82617L0.269862 8.57617C0.0988672 8.43368 0 8.22259 0 8.00001C0 7.77742 0.0988673 7.56634 0.269862 7.42384L1.76986 6.17384C1.99342 5.98754 2.30458 5.94738 2.56812 6.07082Z" fill="#1F2933"/>
<path fill-rule="evenodd" clip-rule="evenodd" d="M8 0.25C8.41421 0.25 8.75 0.585786 8.75 1V15.25C8.75 15.6642 8.41422 16 8.00001 16C7.5858 16 7.25 15.6642 7.25 15.25V1C7.25 0.585786 7.58579 0.25 8 0.25Z" fill="#1F2933"/>
<path fill-rule="evenodd" clip-rule="evenodd" d="M0 8.00001C0 7.5858 0.335786 7.25 0.75 7.25L15 7.25C15.4142 7.25 15.75 7.58579 15.75 8C15.75 8.41421 15.4142 8.75 15 8.75L0.75 8.75C0.335786 8.75 0 8.41422 0 8.00001Z" fill="#1F2933"/>
</g>
<defs>
<clipPath id="clip0_301_4587">
<rect width="16" height="16" fill="white"/>
</clipPath>
</defs>
</svg>
