<svg width="16" height="16" viewBox="0 0 16 16" fill="none" xmlns="http://www.w3.org/2000/svg">
<g clip-path="url(#clip0_407_77)">
<path fill-rule="evenodd" clip-rule="evenodd" d="M14.4905 1.50957C12.8104 1.59619 11.2081 2.2651 9.96267 3.4077L3.83618 9.02853L6.97152 12.1639L12.5924 6.03741C13.735 4.79202 14.4039 3.18973 14.4905 1.50957ZM8.94861 2.30241C10.5627 0.821548 12.6735 -4.57764e-05 14.864 -4.57764e-05H15.2501C15.6643 -4.57764e-05 16.0001 0.335741 16.0001 0.749954V1.13608C16.0001 3.32658 15.1785 5.4374 13.6976 7.05148L7.54748 13.7549C7.40923 13.9056 7.21543 13.9933 7.01097 13.9977C6.80651 14.0021 6.60912 13.9228 6.46451 13.7782L2.22187 9.53554C2.07726 9.39093 1.99797 9.19354 2.00237 8.98908C2.00677 8.78462 2.09447 8.59082 2.24517 8.45256L8.94861 2.30241Z" fill="#1F2933"/>
<path fill-rule="evenodd" clip-rule="evenodd" d="M3.78033 12.2197C4.07322 12.5126 4.07322 12.9874 3.78033 13.2803L1.28033 15.7803C0.987437 16.0732 0.512563 16.0732 0.21967 15.7803C-0.0732233 15.4874 -0.0732233 15.0126 0.21967 14.7197L2.71967 12.2197C3.01256 11.9268 3.48744 11.9268 3.78033 12.2197Z" fill="#1F2933"/>
<path fill-rule="evenodd" clip-rule="evenodd" d="M5.78033 14.2197C6.07322 14.5126 6.07322 14.9874 5.78033 15.2803L5.28033 15.7803C4.98744 16.0732 4.51256 16.0732 4.21967 15.7803C3.92678 15.4874 3.92678 15.0126 4.21967 14.7197L4.71967 14.2197C5.01256 13.9268 5.48744 13.9268 5.78033 14.2197Z" fill="#1F2933"/>
<path fill-rule="evenodd" clip-rule="evenodd" d="M1.78033 10.2197C2.07322 10.5126 2.07322 10.9874 1.78033 11.2803L1.28033 11.7803C0.987437 12.0732 0.512563 12.0732 0.21967 11.7803C-0.0732233 11.4874 -0.0732233 11.0126 0.21967 10.7197L0.71967 10.2197C1.01256 9.92678 1.48744 9.92678 1.78033 10.2197Z" fill="#1F2933"/>
<path fill-rule="evenodd" clip-rule="evenodd" d="M10.6048 9.34468C10.8979 9.50785 11.047 9.84588 10.9699 10.1724L9.72992 15.4224C9.6674 15.6871 9.46652 15.8972 9.20491 15.9715C8.9433 16.0458 8.66197 15.9726 8.46967 15.7803L6.46967 13.7803C6.1771 13.4878 6.17673 13.0135 6.46885 12.7205L9.70885 9.47049C9.94573 9.23288 10.3116 9.1815 10.6048 9.34468ZM8.05984 13.2492L8.57926 13.7686L8.90129 12.4051L8.05984 13.2492Z" fill="#1F2933"/>
<path fill-rule="evenodd" clip-rule="evenodd" d="M6.66289 5.39915C6.8169 5.69013 6.76314 6.04753 6.53034 6.28033L3.28034 9.53033C3.13428 9.67639 2.93445 9.75575 2.72798 9.74968C2.52151 9.74361 2.32669 9.65266 2.18946 9.49828L0.189456 7.24828C0.0101207 7.04652 -0.0469625 6.76396 0.0399889 6.50841C0.12694 6.25287 0.344511 6.06376 0.609679 6.01325L5.85968 5.01325C6.18309 4.95165 6.50887 5.10816 6.66289 5.39915ZM2.18857 7.23948L2.78213 7.90723L3.74666 6.9427L2.18857 7.23948Z" fill="#1F2933"/>
</g>
<defs>
<clipPath id="clip0_407_77">
<rect width="16" height="16" fill="white"/>
</clipPath>
</defs>
</svg>
