<svg width="16" height="16" viewBox="0 0 16 16" fill="none" xmlns="http://www.w3.org/2000/svg">
<g clip-path="url(#clip0_1101_69)">
<path fill-rule="evenodd" clip-rule="evenodd" d="M0 1.75C0 0.783501 0.783502 0 1.75 0H14.25C15.2165 0 16 0.783502 16 1.75V8C16 12.4183 12.4183 16 8 16C3.58172 16 0 12.4183 0 8V1.75ZM1.75 1.5C1.61193 1.5 1.5 1.61193 1.5 1.75V8C1.5 11.5899 4.41015 14.5 8 14.5C11.5899 14.5 14.5 11.5899 14.5 8V1.75C14.5 1.61193 14.3881 1.5 14.25 1.5H1.75Z" fill="#1F2933"/>
<path fill-rule="evenodd" clip-rule="evenodd" d="M4 6.75C4 6.33579 4.33579 6 4.75 6H11.25C11.6642 6 12 6.33579 12 6.75V9.25C12 10.7688 10.7688 12 9.25 12H6.75C5.23122 12 4 10.7688 4 9.25V6.75ZM5.5 7.5V9.25C5.5 9.94036 6.05964 10.5 6.75 10.5H9.25C9.94036 10.5 10.5 9.94036 10.5 9.25V7.5H5.5Z" fill="#1F2933"/>
<path fill-rule="evenodd" clip-rule="evenodd" d="M7.75 4.5C7.05964 4.5 6.5 5.05964 6.5 5.75V6.5C6.5 6.91421 6.16421 7.25 5.75 7.25C5.33579 7.25 5 6.91421 5 6.5V5.75C5 4.23122 6.23122 3 7.75 3H8.25C9.76878 3 11 4.23122 11 5.75V6.5C11 6.91421 10.6642 7.25 10.25 7.25C9.83579 7.25 9.5 6.91421 9.5 6.5V5.75C9.5 5.05964 8.94036 4.5 8.25 4.5H7.75Z" fill="#1F2933"/>
</g>
<defs>
<clipPath id="clip0_1101_69">
<rect width="16" height="16" fill="white"/>
</clipPath>
</defs>
</svg>
