<svg width="16" height="16" viewBox="0 0 16 16" fill="none" xmlns="http://www.w3.org/2000/svg">
<g clip-path="url(#clip0_1_635)">
<path fill-rule="evenodd" clip-rule="evenodd" d="M10 5C10 4.44772 10.4477 4 11 4C11.5523 4 12 4.44772 12 5C12 5.55228 11.5523 6 11 6C10.4477 6 10 5.55228 10 5Z" fill="#1F2933"/>
<path fill-rule="evenodd" clip-rule="evenodd" d="M7.48029 0.209295C7.62 0.0750044 7.80626 0 8.00004 0H15.25C15.6643 0 16 0.335786 16 0.75V8C16 8.19941 15.9206 8.39061 15.7794 8.53135L9.08287 15.2022C7.98414 16.2967 6.19818 16.2667 5.13686 15.1358L0.743095 10.4543C-0.287501 9.35617 -0.243164 7.63339 0.842554 6.58975L7.48029 0.209295ZM8.30205 1.5L1.88205 7.67116C1.38854 8.14554 1.36839 8.92863 1.83684 9.42776L6.2306 14.1093C6.71302 14.6233 7.52482 14.637 8.02424 14.1395L14.5 7.6885V1.5H8.30205Z" fill="#1F2933"/>
</g>
<defs>
<clipPath id="clip0_1_635">
<rect width="16" height="16" fill="white"/>
</clipPath>
</defs>
</svg>
