<svg width="16" height="16" viewBox="0 0 16 16" fill="none" xmlns="http://www.w3.org/2000/svg">
<g clip-path="url(#clip0_196_154)">
<path fill-rule="evenodd" clip-rule="evenodd" d="M0.75 2C1.16421 2 1.5 2.33579 1.5 2.75V13.25C1.5 13.9404 2.05964 14.5 2.75 14.5H13.25C13.9404 14.5 14.5 13.9404 14.5 13.25V4.25C14.5 3.83579 14.8358 3.5 15.25 3.5C15.6642 3.5 16 3.83579 16 4.25V13.25C16 14.7688 14.7688 16 13.25 16H2.75C1.23122 16 0 14.7688 0 13.25V2.75C0 2.33579 0.335786 2 0.75 2Z" fill="#1F2933"/>
<path fill-rule="evenodd" clip-rule="evenodd" d="M11 9C11 8.44771 11.4477 8 12 8C12.5523 8 13 8.44771 13 9C13 9.55229 12.5523 10 12 10C11.4477 10 11 9.55229 11 9Z" fill="#1F2933"/>
<path fill-rule="evenodd" clip-rule="evenodd" d="M0 2.5C0 1.11929 1.11929 0 2.5 0H11.25C12.7688 0 14 1.23122 14 2.75V3.5H15.25C15.6642 3.5 16 3.83579 16 4.25C16 4.66421 15.6642 5 15.25 5H2.5C1.11929 5 0 3.88071 0 2.5ZM12.5 3.5V2.75C12.5 2.05964 11.9404 1.5 11.25 1.5H2.5C1.94772 1.5 1.5 1.94772 1.5 2.5C1.5 3.05228 1.94772 3.5 2.5 3.5H12.5Z" fill="#1F2933"/>
</g>
<defs>
<clipPath id="clip0_196_154">
<rect width="16" height="16" fill="white"/>
</clipPath>
</defs>
</svg>
