<svg width="16" height="16" viewBox="0 0 16 16" fill="none" xmlns="http://www.w3.org/2000/svg">
<g clip-path="url(#clip0_301_4668)">
<path fill-rule="evenodd" clip-rule="evenodd" d="M11 1.5C9.06704 1.5 7.50003 3.067 7.50003 5C7.50003 5.54247 7.62292 6.05412 7.84167 6.51051C7.97922 6.79747 7.92069 7.14 7.69568 7.36501L1.69442 13.3663C1.43503 13.6257 1.43503 14.0462 1.69442 14.3056C1.95381 14.565 2.37437 14.565 2.63376 14.3056L8.63502 8.30435C8.86003 8.07934 9.20255 8.02082 9.48952 8.15836C9.94591 8.37711 10.4576 8.5 11 8.5C12.933 8.5 14.5 6.933 14.5 5C14.5 4.86907 14.4929 4.73994 14.4789 4.61295L13.0104 6.08149C12.327 6.76491 11.2189 6.76491 10.5355 6.0815L9.93413 5.48011C9.25071 4.79669 9.25072 3.68866 9.93413 3.00524L11.4151 1.52428C11.2791 1.50825 11.1406 1.5 11 1.5ZM6.00003 5C6.00003 2.23858 8.23861 0 11 0C11.7717 0 12.5045 0.175316 13.1589 0.488992C13.3783 0.594148 13.533 0.79919 13.574 1.03901C13.615 1.27882 13.5371 1.52361 13.365 1.69565L10.9948 4.0659C10.8972 4.16353 10.8972 4.32182 10.9948 4.41945L11.5962 5.02083C11.6938 5.11847 11.8521 5.11847 11.9497 5.02083L14.3144 2.65612C14.487 2.48357 14.7327 2.40575 14.9731 2.44751C15.2136 2.48928 15.4186 2.64539 15.5229 2.86603C15.8291 3.51415 16 4.23816 16 5C16 7.76142 13.7615 10 11 10C10.4199 10 9.86171 9.9009 9.34228 9.71841L3.69442 15.3663C2.84924 16.2114 1.47894 16.2114 0.633761 15.3663C-0.211416 14.5211 -0.211417 13.1508 0.633761 12.3056L6.28162 6.65775C6.09913 6.13832 6.00003 5.58014 6.00003 5Z" fill="#1F2933"/>
</g>
<defs>
<clipPath id="clip0_301_4668">
<rect width="16" height="16" fill="white"/>
</clipPath>
</defs>
</svg>
